# xmcd
#
# Track frame offsets:
#	182
#	16877
#	32777
#	45017
#	60135
#	74877
#	93455
#	105160
#	118650
#	131242
#	152875
#	166525
#	181935
#	201372
#	217292
#	230417
#	245252
#	260095
#	277057
#	290597
#
# Disc length: 4049 seconds
#
# Revision: 4
# Processed by: cddbd v1.5.2PL0 Copyright (c) Steve Scherf et al.
# Submitted via: EZCDAudioConverter 6.0.3.1
#
DISCID=220fcf14
DTITLE=Various Artist - Only Country 1980-1984
DYEAR=1995
DGENRE=Country
TTITLE0=Oak Ridge Boys - Elvira
TTITLE1=Johnny Lee - Looking For Love
TTITLE2=Shelly West - Jose Cuervo
TTITLE3=Gary Morris - Baby Bye Bye
TTITLE4=Eddie Rabbitt - Drivin' My Life Away
TTITLE5=Juice Newton - The Sweetest Thing (I've Ever Known)
TTITLE6=Mel Tillis - Southern Rains
TTITLE7=Ricky Scaggs - Crying My Heart Out Over You
TTITLE8=Barbara Mandrell - One Of A Kind Pair Of Fools
TTITLE9=Willie Nelson And Merle Haggard - Pancho And Lefty
TTITLE10=John Anderson - Swingin'
TTITLE11=Frizzell And West - You're The Reason God Made Oklahoma
TTITLE12=T.G. Sheppard - Slow Burn
TTITLE13=Willie Nelson - Always On My Mind
TTITLE14=Terri Gibbs - Somebody's Knockin'
TTITLE15=Mickey Gilley - Talk To Me
TTITLE16=Nitty Gritty Dirt Band - Long Hard Road (The Sharecropper's Dream)
TTITLE17=Emmylou Harris - Beneath Still Waters
TTITLE18=Tompall And The Glaser Brothers - Lovin' Her Was Easier (Than Anythin
TTITLE18=g I'll Ever Do Again)
TTITLE19=Conway Twitty - Slow Hand
EXTD=
EXTT0=
EXTT1=
EXTT2=
EXTT3=
EXTT4=
EXTT5=
EXTT6=
EXTT7=
EXTT8=
EXTT9=
EXTT10=
EXTT11=
EXTT12=
EXTT13=
EXTT14=
EXTT15=
EXTT16=
EXTT17=
EXTT18=
EXTT19=
PLAYORDER=
